<svg width="127" height="60" viewBox="0 0 127 60" fill="none" xmlns="http://www.w3.org/2000/svg">
<g filter="url(#filter0_d_12_70)">
<path d="M43.6227 15.4299L25.3383 6.66778C25.3383 6.66778 24.624 6.22441 24.1109 6.1844C23.4722 6.1346 22.5407 6.66273 22.5407 6.66273L7.72076 14.1971C7.72076 14.1971 6.7523 15.4574 6.7616 16.395C6.77066 17.308 7.71309 18.5276 7.71309 18.5276L24.0733 27.4243L25.3009 27.7702L26.5979 27.4288L42.3053 19.6898C42.3053 19.6898 43.5114 19.4454 44.2158 19.6933C45.0703 19.994 45.9188 21.2773 45.9188 21.2773L46.1497 44.9922C46.1497 44.9922 46.1205 45.7621 45.8747 46.1602C45.5932 46.6161 44.7815 46.9831 44.7815 46.9831L29.4155 54.5853C29.4155 54.5853 28.1628 54.8484 27.4368 54.5817C26.4984 54.2369 25.666 52.7226 25.666 52.7226L25.2905 33.6128L24.8157 32.031L23.2481 30.9971L5.25048 22.0288C5.25048 22.0288 3.76688 21.8561 2.99831 22.2997C2.30854 22.6978 1.69908 23.8783 1.69908 23.8783L1.66373 43.8121C1.66373 43.8121 1.8613 44.6529 2.2074 45.0504C2.53892 45.4312 3.29791 45.7397 3.29791 45.7397L22.4121 54.5726" stroke="#1D3485" stroke-width="2.72582"/>
</g>
<path d="M55.5294 8.97164L66.7218 8.99163L66.7133 13.7363L60.8738 13.7258L60.8518 26.0132L55.4989 26.0036L55.5294 8.97164ZM68.6636 8.9951L74.0165 9.00466L73.986 26.0366L68.6331 26.0271L68.6636 8.9951ZM72.111 13.2593L72.1186 9.00127L75.3547 9.00706C77.0254 9.01004 78.3795 9.24766 79.4168 9.71992C80.4703 10.1922 81.2396 10.8668 81.7246 11.7436C82.2259 12.6042 82.4755 13.6428 82.4733 14.8593C82.4712 16.0597 82.2179 17.0974 81.7135 17.9724C81.2253 18.8474 80.4536 19.5192 79.3984 19.9878C78.3594 20.4563 77.0045 20.6891 75.3338 20.6861L72.0977 20.6803L72.1053 16.4223L75.3414 16.4281C76.0065 16.4293 76.5096 16.2923 76.8507 16.0172C77.1918 15.742 77.3628 15.353 77.3637 14.8502C77.3646 14.3473 77.195 13.9577 76.8549 13.6814C76.5147 13.405 76.0121 13.2662 75.3471 13.265L72.111 13.2593ZM98.6567 9.04868L90.6212 26.0663L85.2683 26.0568L87.6379 20.7811L82.1114 9.01913L87.9509 9.02956L91.0972 18.4028L89.0291 18.3991L93.1822 9.0389L98.6567 9.04868ZM106.023 17.9428L106.027 15.7773C106.757 15.7786 107.357 15.7148 107.827 15.5859C108.314 15.457 108.672 15.2711 108.899 15.0282C109.127 14.7691 109.241 14.4773 109.241 14.1529C109.242 13.8933 109.161 13.6661 108.999 13.4711C108.854 13.2762 108.627 13.1217 108.319 13.0076C108.027 12.8936 107.662 12.8361 107.224 12.8354C106.705 12.8344 106.267 12.9066 105.91 13.052C105.569 13.1812 105.309 13.3753 105.13 13.6346C104.968 13.8776 104.886 14.1694 104.885 14.5101L99.9947 14.5013C99.9966 13.4145 100.266 12.4336 100.803 11.5587C101.34 10.6837 102.144 9.98762 103.215 9.47046C104.287 8.9533 105.634 8.69617 107.256 8.69907C108.878 8.70197 110.224 8.91525 111.294 9.3389C112.364 9.76256 113.165 10.3398 113.699 11.0707C114.233 11.8016 114.5 12.6294 114.498 13.554C114.496 14.365 114.268 15.054 113.813 15.6209C113.358 16.1878 112.732 16.6409 111.937 16.9801C111.158 17.3194 110.257 17.5692 109.235 17.7296C108.213 17.8737 107.142 17.9448 106.023 17.9428ZM107.467 26.5831C106.007 26.5805 104.759 26.3998 103.721 26.0411C102.684 25.6824 101.833 25.1942 101.169 24.5766C100.505 23.959 100.02 23.2688 99.7127 22.5059C99.4059 21.7267 99.2532 20.9316 99.2547 20.1206L104.51 20.1299C104.509 20.6977 104.638 21.1521 104.897 21.4932C105.172 21.8343 105.521 22.0783 105.942 22.225C106.364 22.3717 106.793 22.4455 107.231 22.4463C107.896 22.4475 108.472 22.3431 108.959 22.1331C109.463 21.9069 109.715 21.4856 109.716 20.8692C109.716 20.5285 109.612 20.2121 109.401 19.9197C109.191 19.6273 108.818 19.3915 108.283 19.2121C107.748 19.0165 106.994 18.9178 106.021 18.9161L106.026 16.3856C107.777 16.3887 109.326 16.5618 110.672 16.9049C112.018 17.2479 113.071 17.7851 113.832 18.5164C114.593 19.2477 114.973 20.1973 114.971 21.3652C114.969 22.3709 114.7 23.2707 114.163 24.0646C113.626 24.8422 112.798 25.4571 111.678 25.9093C110.574 26.3615 109.17 26.5861 107.467 26.5831Z" fill="#1D3485"/>
<path d="M81.0051 49.5791L74.5425 49.5675L74.5653 36.7383L69.7756 49.5589L66.8962 49.5537L62.1521 36.716L62.1293 49.5451L55.6667 49.5335L55.7046 28.1942L64.6306 28.2103L68.3556 38.4548L72.1169 28.2238L81.043 28.2399L81.0051 49.5791ZM105.204 49.6227L97.5899 49.609L93.6983 43.0754L89.7836 49.5949L82.1693 49.5812L89.3231 38.6525L82.6871 28.2428L90.2694 28.2565L93.7138 34.3414L97.1159 28.2688L104.762 28.2826L98.0893 38.6363L105.204 49.6227ZM126.658 49.6614L118.788 49.6472L114.003 42.1202L112.816 43.7177L112.805 49.6364L106.343 49.6248L106.381 28.2855L112.843 28.2972L112.829 36.2954L118.442 28.3073L126.344 28.3215L118.265 38.2248L126.658 49.6614Z" fill="#1D3485"/>
<defs>
<filter id="filter0_d_12_70" x="-2.44975e-05" y="4.81836" width="47.8134" height="51.8472" filterUnits="userSpaceOnUse" color-interpolation-filters="sRGB">
<feFlood flood-opacity="0" result="BackgroundImageFix"/>
<feColorMatrix in="SourceAlpha" type="matrix" values="0 0 0 0 0 0 0 0 0 0 0 0 0 0 0 0 0 0 127 0" result="hardAlpha"/>
<feOffset dy="0.300562"/>
<feGaussianBlur stdDeviation="0.150281"/>
<feComposite in2="hardAlpha" operator="out"/>
<feColorMatrix type="matrix" values="0 0 0 0 0 0 0 0 0 0 0 0 0 0 0 0 0 0 1 0"/>
<feBlend mode="normal" in2="BackgroundImageFix" result="effect1_dropShadow_12_70"/>
<feBlend mode="normal" in="SourceGraphic" in2="effect1_dropShadow_12_70" result="shape"/>
</filter>
</defs>
</svg>
